<svg class="svg-icon logo-stacked masthead-logo d-lg-none masthead-logo-post" xmlns="http://www.w3.org/2000/svg" width="930" height="320" viewBox="0 0 930 320">
              <title>Business Insider logo</title>
            
              <g class="logo-stacked-path" fill="#111" fill-rule="evenodd">
                <path d="M.4 3.1h62.7c34.9 0 53.1 18 53.1 40.2 0 15.3-8.6 25.7-20.6 31.1v.4c15.3 5.5 23.9 17.6 23.9 33.1 0 22.1-17 41.5-53.9 41.5H.4V3.1zm60.7 58c10.4 0 15.1-5.3 15.1-11.2s-4.7-11.4-15.1-11.4H42.7V61h18.4zm.6 52.9c11 0 16.3-5.3 16.3-12.1s-5.5-12.1-16.1-12.1H42.7V114h19zm66.8-24.1V3.1h42.7v86.4c0 16.3 8 24.9 21.7 24.9s22.3-8.6 22.3-25.1V3.1h42.9v86.8c0 36.8-24.7 63.3-65.2 63.3s-64.4-26.5-64.4-63.3zm238.4-79.7v37.6c-9.2-6.5-24.9-11-37.6-11-11.6 0-17.4 3.7-17.4 8.6s6.5 7.4 18 11.6c19.6 6.9 46.2 16.1 46.2 47.2 0 27.8-21 48.4-57.8 48.4-19 0-36.4-5.5-47.2-12.7v-39.6c10.6 8.6 26.6 15.5 42.1 15.5 13.1 0 19.2-4.9 19.2-10.4 0-7.1-10-10.2-21.9-14.5C294.8 85.2 270 75 270 46.6 269.9 21 290.1 0 326.1 0c15.9 0 30.2 4.1 40.8 10.2zM387 3.1h42.7v146.3H387V3.1zm194.5 146.4h-40.7L488.1 71h-.2v78.5h-40.5V3.1h40.7l52.7 77.2h.2V3.1h40.5v146.4zM599.2 3.1h101.1v38h-58.4v17.6h52.5v34.5h-52.5v18.2h58.4v38H599.2V3.1zm208.2 7.1v37.6c-9.2-6.5-24.9-11-37.6-11-11.6 0-17.4 3.7-17.4 8.6s6.5 7.4 18 11.6c19.6 6.9 46.2 16.1 46.2 47.2 0 27.8-21 48.4-57.8 48.4-19 0-36.4-5.5-47.2-12.7v-39.6c10.6 8.6 26.6 15.5 42.1 15.5 13.1 0 19.2-4.9 19.2-10.4 0-7.1-10-10.2-21.9-14.5-15.7-5.7-40.5-15.9-40.5-44.3C710.4 21 730.6 0 766.6 0c15.9 0 30.2 4.1 40.8 10.2zm113 0v37.6c-9.2-6.5-24.9-11-37.6-11-11.6 0-17.4 3.7-17.4 8.6s6.5 7.4 18 11.6c19.6 6.9 46.2 16.1 46.2 47.2 0 27.8-21 48.4-57.8 48.4-19 0-36.4-5.5-47.2-12.7v-39.6c10.6 8.6 26.6 15.5 42.1 15.5 13.1 0 19.2-4.9 19.2-10.4 0-7.1-10-10.2-21.9-14.5-15.7-5.7-40.5-15.9-40.5-44.3C823.4 21 843.6 0 879.6 0c15.9 0 30.2 4.1 40.8 10.2zM94.1 316.9h42.7V170.6H94.1v146.3zm194.5-146.3H248v77.2h-.2l-52.7-77.2h-40.7v146.3H195v-78.5h.2l52.7 78.5h40.7V170.6zm68.8-3.2c-36 0-56.2 21-56.2 46.6 0 28.4 24.9 38.6 40.5 44.3 12 4.3 21.9 7.4 21.9 14.5 0 5.5-6.1 10.4-19.2 10.4-15.5 0-31.5-6.9-42.1-15.5v39.6c10.8 7.2 28.2 12.7 47.2 12.7 36.8 0 57.8-20.6 57.8-48.4 0-31.1-26.6-40.4-46.2-47.2-11.6-4.1-18-6.5-18-11.6s5.9-8.6 17.4-8.6c12.7 0 28.4 4.5 37.6 11v-37.6c-10.6-6.1-24.9-10.2-40.7-10.2zm59.9 149.5H460V170.6h-42.7v146.3zm103-38.6h8.2c22.1 0 36.4-12.5 36.4-34.5s-14.3-34.7-36.4-34.7h-8.2v69.2zm87.8-34.5c0 44.1-33.3 73.1-81.1 73.1h-49.4V170.6H527c47.8 0 81.1 29.2 81.1 73.2zm11.5 73.1h101.1v-38h-58.4v-18.2h52.5v-34.5h-52.5v-17.6h58.4v-38H619.6v146.3zm168.3-77.2c10.8 0 19.2-5.1 19.2-15.3s-8.4-15.3-19.4-15.3h-9v30.6h9.2zm69.9 77.2h-50.3l-27.8-45.2h-1v45.2H736V170.6h52.1c36.6 0 62.1 16.3 62.1 50.9 0 13.7-6.1 33.7-30.4 43.9l38 51.5z"/>
              </g>
            </svg>